<svg xmlns="http://www.w3.org/2000/svg" width="18" height="18" viewBox="0 0 18 18" fill="none">
  <mask id="mask0_4646_254204" style="mask-type:luminance" maskUnits="userSpaceOnUse" x="0" y="0" width="18" height="18">
    <path d="M18 0H0V18H18V0Z" fill="white"/>
  </mask>
  <g mask="url(#mask0_4646_254204)">
    <path d="M17.64 9.2046C17.64 8.56641 17.5828 7.95279 17.4764 7.36365H9V10.845H13.8436C13.635 11.97 13.001 12.9232 12.0478 13.5614V15.8196H14.9564C16.6582 14.2528 17.64 11.9455 17.64 9.2046Z" fill="#4285F4"/>
    <path d="M8.99979 18C11.4298 18 13.467 17.194 14.9561 15.8195L12.0475 13.5613C11.2416 14.1013 10.2107 14.4204 8.99979 14.4204C6.65565 14.4204 4.6716 12.8372 3.96384 10.71H0.957031V13.0418C2.43798 15.9832 5.4816 18 8.99979 18Z" fill="#34A853"/>
    <path d="M3.96405 10.7099C3.78405 10.1699 3.68181 9.59313 3.68181 8.99994C3.68181 8.40675 3.78405 7.82994 3.96405 7.28994V4.95813H0.95724C0.34776 6.17313 0 7.5477 0 8.99994C0 10.4522 0.34776 11.8267 0.95724 13.0417L3.96405 10.7099Z" fill="#FBBC04"/>
    <path d="M8.99979 3.57957C10.3211 3.57957 11.5075 4.03362 12.4402 4.92543L15.0216 2.34405C13.463 0.89181 11.4257 0 8.99979 0C5.4816 0 2.43798 2.01681 0.957031 4.95819L3.96384 7.29C4.6716 5.16276 6.65565 3.57957 8.99979 3.57957Z" fill="#E94235"/>
  </g>
</svg>